C:\Users\israe\Dropbox\PhDWork\ExperimentalData/subject1/145/P1S145W06_EMG(MVC)_40ms.mot
nRows=29
nColumns=16

name C:\Users\israe\Dropbox\PhDWork\ExperimentalData/subject1/145/P1S145W06_EMG(MVC)_40ms.mot
datacolumns 16
datarows 29
range 0.4520000000 0.4800000000
endheader
time	BF	ST	VL	VM	RF	TFL	GE	GA	TA	GL	GM	SO	ES	MF	VI_a
        0.4520000000	        0.3037163334	        0.3011240769	        0.0283663673	        0.0475218583	        0.0211258131	        0.0289290909	        0.0634090073	        0.0140070756	        0.1147915538	        0.0429041115	        0.0303776090	        0.0261304014	        0.9066914680	        0.9082962333	        0.0379441128	
        0.4530000000	        0.3107279193	        0.3039544639	        0.0285775991	        0.0478448491	        0.0212661084	        0.0291385404	        0.0634214195	        0.0138188596	        0.1171338957	        0.0433275353	        0.0304716802	        0.0263756503	        0.9068114008	        0.9082519061	        0.0382112241	
        0.4540000000	        0.3177735704	        0.3067081418	        0.0287812438	        0.0481796841	        0.0214066723	        0.0293503979	        0.0634342096	        0.0136417320	        0.1194777235	        0.0437521487	        0.0305651800	        0.0266275736	        0.9069280067	        0.9082073062	        0.0384804639	
        0.4550000000	        0.3248454955	        0.3093819110	        0.0289765337	        0.0485268967	        0.0215472755	        0.0295644428	        0.0634473737	        0.0134760264	        0.1218206105	        0.0441771508	        0.0306579771	        0.0268858487	        0.9070412971	        0.9081624091	        0.0387517152	
        0.4560000000	        0.3319360376	        0.3119723995	        0.0291626108	        0.0488869708	        0.0216877129	        0.0297805359	        0.0634608789	        0.0133220881	        0.1241600517	        0.0446017000	        0.0307499600	        0.0271501789	        0.9071513858	        0.9081171961	        0.0390247908	
        0.4570000000	        0.3390374595	        0.3144757542	        0.0293385442	        0.0492603796	        0.0218278078	        0.0299986040	        0.0634747538	        0.0131802627	        0.1264933938	        0.0450249800	        0.0308410226	        0.0274202944	        0.9072584509	        0.9080716292	        0.0392994619	
        0.4580000000	        0.3461411888	        0.3168872771	        0.0295033362	        0.0496475609	        0.0219673981	        0.0302185758	        0.0634891861	        0.0130508791	        0.1288181019	        0.0454462786	        0.0309310140	        0.0276959196	        0.9073626799	        0.9080256023	        0.0395754486	
        0.4590000000	        0.3532372655	        0.3192013346	        0.0296559383	        0.0500488756	        0.0221063004	        0.0304403093	        0.0635045275	        0.0129342510	        0.1311320352	        0.0458650276	        0.0310197190	        0.0279767668	        0.9074641608	        0.9079788615	        0.0398524069	
        0.4600000000	        0.3603142533	        0.3214113131	        0.0297953154	        0.0504645866	        0.0222443187	        0.0306635861	        0.0635211941	        0.0128306986	        0.1334334036	        0.0462807607	        0.0311068970	        0.0282625588	        0.9075627287	        0.9079310573	        0.0401299510	
        0.4610000000	        0.3673594633	        0.3235097027	        0.0299205343	        0.0508948641	        0.0223813070	        0.0308882049	        0.0635395601	        0.0127405542	        0.1357204478	        0.0466930576	        0.0311923643	        0.0285530206	        0.9076579797	        0.9078819759	        0.0404076992	
        0.4620000000	        0.3743591796	        0.3254882819	        0.0300308480	        0.0513398100	        0.0225172000	        0.0311140756	        0.0635599049	        0.0126641435	        0.1379911628	        0.0471015575	        0.0312760482	        0.0288478413	        0.9077495506	        0.9078317067	        0.0406853290	
        0.4630000000	        0.3812986633	        0.3273382542	        0.0301257695	        0.0517994666	        0.0226519713	        0.0313411890	        0.0635823841	        0.0126017738	        0.1402432912	        0.0475060124	        0.0313579473	        0.0291466505	        0.9078373739	        0.9077806242	        0.0409626180	
        0.4640000000	        0.3881623774	        0.3290505805	        0.0302050966	        0.0522738427	        0.0227855770	        0.0315695218	        0.0636070224	        0.0125537445	        0.1424745184	        0.0479062649	        0.0314380674	        0.0294490255	        0.9079217144	        0.9077292824	        0.0412394696	
        0.4650000000	        0.3949349127	        0.3306163432	        0.0302688661	        0.0527629904	        0.0229179462	        0.0317990119	        0.0636338063	        0.0125203617	        0.1446825973	        0.0483021736	        0.0315164081	        0.0297545106	        0.9080030933	        0.9076782870	        0.0415159283	
        0.4660000000	        0.4016022757	        0.3320266880	        0.0303172617	        0.0532670318	        0.0230490308	        0.0320295987	        0.0636628153	        0.0125019430	        0.1468652551	        0.0486936438	        0.0315929761	        0.0300626312	        0.9080821806	        0.9076281737	        0.0417921468	
        0.4670000000	        0.4081526559	        0.3332728301	        0.0303505208	        0.0537860728	        0.0231788932	        0.0322612563	        0.0636941994	        0.0124988215	        0.1490200674	        0.0490807504	        0.0316677930	        0.0303729221	        0.9081596776	        0.9075793162	        0.0420682968	
        0.4680000000	        0.4145760187	        0.3343468734	        0.0303688999	        0.0543200972	        0.0233077676	        0.0324940087	        0.0637280770	        0.0125113528	        0.1511444627	        0.0494637928	        0.0317409122	        0.0306849925	        0.9082362117	        0.9075318389	        0.0423444986	
        0.4690000000	        0.4208631212	        0.3352430718	        0.0303727344	        0.0548689150	        0.0234360418	        0.0327279347	        0.0637645545	        0.0125399239	        0.1532358927	        0.0498432280	        0.0318124473	        0.0309985919	        0.9083121947	        0.9074855436	        0.0426208247	
        0.4700000000	        0.4270054442	        0.3359584169	        0.0303625514	        0.0554321568	        0.0235641870	        0.0329631736	        0.0638037980	        0.0125849473	        0.1552922970	        0.0502195724	        0.0318825629	        0.0313136202	        0.9083876303	        0.9074399861	        0.0428973541	
        0.4710000000	        0.4329963620	        0.3364920885	        0.0303391558	        0.0560093267	        0.0236926869	        0.0331999520	        0.0638460358	        0.0126468350	        0.1573126116	        0.0505933311	        0.0319514180	        0.0316300550	        0.9084621173	        0.9073947108	        0.0431742412	
        0.4720000000	        0.4388323141	        0.3368448173	        0.0303036470	        0.0565999008	        0.0238219975	        0.0334385892	        0.0638915496	        0.0127259709	        0.1592967619	        0.0509649343	        0.0320191364	        0.0319478514	        0.9085351512	        0.9073494066	        0.0434517739	
        0.4730000000	        0.4445129523	        0.3370189679	        0.0302573895	        0.0572033662	        0.0239525495	        0.0336794363	        0.0639406788	        0.0128226990	        0.1612453334	        0.0513346957	        0.0320858377	        0.0322668832	        0.9086063817	        0.9073039106	        0.0437303779	
        0.4740000000	        0.4500402625	        0.3370183723	        0.0302019625	        0.0578191480	        0.0240847862	        0.0339228091	        0.0639938052	        0.0129373179	        0.1631595282	        0.0517028095	        0.0321516771	        0.0325869546	        0.9086756400	        0.9072581685	        0.0440105553	
        0.4750000000	        0.4554170894	        0.3368473189	        0.0301390741	        0.0584465124	        0.0242192060	        0.0341689725	        0.0640513459	        0.0130700845	        0.1650412067	        0.0520693399	        0.0322168553	        0.0329078550	        0.9087428809	        0.9072121948	        0.0442927933	
        0.4760000000	        0.4606456918	        0.3365096533	        0.0300704449	        0.0590845690	        0.0243563775	        0.0344181392	        0.0641137559	        0.0132212244	        0.1668926370	        0.0524341957	        0.0322816128	        0.0332293871	        0.9088081381	        0.9071660240	        0.0445775069	
        0.4770000000	        0.4657269771	        0.3360086632	        0.0299977246	        0.0597324072	        0.0244969177	        0.0346704664	        0.0641814990	        0.0133909354	        0.1687161798	        0.0527971545	        0.0323462134	        0.0335513596	        0.9088714819	        0.9071196687	        0.0448650659	
        0.4780000000	        0.4706604841	        0.3353475000	        0.0299224704	        0.0603892543	        0.0246414586	        0.0349260704	        0.0642549860	        0.0135793758	        0.1705140678	        0.0531579768	        0.0324109291	        0.0338736062	        0.9089329756	        0.9070730590	        0.0451558623	
        0.4790000000	        0.4754445682	        0.3345298809	        0.0298461460	        0.0610545168	        0.0247906229	        0.0351850343	        0.0643344957	        0.0137866602	        0.1722882129	        0.0535165145	        0.0324760404	        0.0341960406	        0.9089925844	        0.9070259633	        0.0454503314	
        0.4800000000	        0.4800764057	        0.3335606231	        0.0297701277	        0.0617277608	        0.0249450075	        0.0354474005	        0.0644201283	        0.0140128831	        0.1740400589	        0.0538727029	        0.0325418366	        0.0345186919	        0.9090500264	        0.9069780474	        0.0457489442	
